<svg xmlns="http://www.w3.org/2000/svg" xmlns:xlink="http://www.w3.org/1999/xlink" xmlns:inkscape="http://www.inkscape.org/namespaces/inkscape" version="1.1" width="1170" height="1088" viewBox="0 0 1170 1088">
<defs>
<clipPath id="clip_1">
<path transform="matrix(1,0,0,-1,0,1088)" d="M0 1088H1170V0H0Z"/>
</clipPath>
</defs>
<g inkscape:groupmode="layer" inkscape:label="Layer 1">
<g clip-path="url(#clip_1)">
<path transform="matrix(1,0,0,-1,788.351,875.4376)" d="M0 0C-4.296 27.46-32.177 33.423-56.759 29.993-57.665 2.155-22.326-7.344 0 0M69.185 119.358C54.951 116.514 42.45 107.921 58.913 97.273 77.388 85.325 98.21 90.994 113.428 105.108 102.961 119.139 85.908 122.699 69.185 119.358M152.765 249.651C136.977 247.47 124.29 235.392 116.902 221.917 137.476 204.537 166.384 220.54 176.749 242.009 170.179 249.814 162.382 250.98 152.765 249.651M183.567 397.166C156.809 399.518 134.515 377.202 136.87 350.468 163.517 349.651 184.376 370.437 183.567 397.166M103.515 480.637C128.763 484.547 142.741 520.344 128.528 540.633 105.124 527.805 93.465 506.995 103.515 480.637M20.21 590.957C48.327 591.834 44.252 635.732 28.319 650.869 4.424 639.126 9.997 610.702 20.21 590.957M-111.72 714.268C-127.815 709.469-107.926 653.693-88.532 657.534-71.871 660.833-92.476 720.006-111.72 714.268M-16.707 624.15C-17.711 650.998 1.278 680.429 27.867 686.886 61.39 672.496 75.81 635.719 68.618 600.606 65.893 587.308 49.506 570.056 50.477 563.191L75.1 530.765C96.174 562.178 149.355 600.279 162.078 540.906 170.246 502.793 152.369 466.543 116.562 451.877L126.87 410.53C141.443 411.996 150.966 423.847 166.01 426.421 212.068 434.302 222.262 407.622 207.567 368.195 195.414 335.585 168.34 324.968 136.501 318.387L130.126 278.732C158.063 276.142 192.489 283.422 209.746 254.66 203.113 197.222 156.38 178.014 103.471 188.781L83.493 155.116C81.514 148.632 100.046 148.09 106.75 145.103 133.269 133.291 161.081 113.347 135.696 84.565 108.854 54.131 55.034 56.855 25.621 82.948 22.991 82.724-1.391 64.497-3.52 61.865-11.925 51.468 6.588 46.067 13.495 38.5 87.05-42.095-69.06-56.623-86.939 16.631-104.266 10.678-123.405 11.234-116.862 34.308-115.663 38.538-49.79 65.543-37.824 72.835 156.134 191.029 150.244 486.18-43.664 602.201-72.804 619.637-121.255 630.864-137.544 661.867-165.065 714.248-128.774 783.337-73.296 726.115-50.297 702.392-50.37 674.419-58.673 644.165Z"/>
<path transform="matrix(1,0,0,-1,603.8922,886.3235)" d="M0 0C-24.173 26.234-64.151-20.256-34.421-39.451-6.997-57.157 19.515-21.179 0 0M-222.78 10.886C-198.108 3.505-174.776 12.539-162.775 35.907-184.067 50.41-219.804 37.078-222.78 10.886M-272.98 111.172C-270.875 137.008-330.185 137.195-333.105 115.913-334.18 108.083-309.414 101.377-304.191 101.256-292.856 100.996-283.565 108.899-272.98 111.172M-387.182 260.606C-391.774 259.701-396.579 256.593-399.52 252.896-389.602 233.051-358.655 215.328-339.682 232.803-347.986 249.337-368.26 264.34-387.182 260.606M-359.65 361.354C-357.297 388.112-379.614 410.406-406.347 408.052-408.143 383.143-383.945 361.061-359.65 361.354M19.685-58.035C-25.435-103.11-98.559-44.885-65.893 10.819L-131.04 26.717C-148.002 5.769-161.403-15.95-191.056-19.2-272.77-28.156-270.488 27.412-216.103 65.969L-248.401 93.833C-278.272 67.54-330.403 65.302-358.469 95.458-391.367 130.806-339.178 152.487-311.085 160.999-307.397 162.116-305.136 158.703-306.273 166.002L-326.251 199.667C-356.871 197.063-385.683 192.704-409.818 216.02-420.261 226.109-437.673 256.266-429.994 269.643-417.796 290.891-377.559 289.868-356.28 287.887L-360.349 330.615C-392.647 334.279-420.365 349.407-431.302 381.463-461.409 469.704-339.146 449.919-329.949 369.324-328.217 354.145-331.172 337.859-329.548 322.994-312.558 167.405-204.152 60.305-50.825 37.602-28.026 34.226-8.077 40.988 13.982 25.636 40.382 7.262 41.897-35.845 19.685-58.035"/>
<path transform="matrix(1,0,0,-1,746.9095,703.7458)" d="M0 0C65.008 64.104 86.413 169.018 50.978 253.391 45.864 265.568 21.762 300.841 21.352 307.546 20.49 321.661 36.367 326.684 46.687 319.17 62.789 307.445 90.101 237.211 94.051 216.353 143.835-46.554-188.77-209.237-360.827-4.868-542.374 210.773-297.322 521.259-47.424 398.66-34.424 392.283 4.643 371.864-3.542 355.662-13.788 335.38-46.414 365.154-58.551 370.843-233.222 452.72-421.045 312.375-388.227 121.278-357.081-60.087-129.731-127.927 0 0"/>
<path transform="matrix(1,0,0,-1,266.5971,342.45094)" d="M0 0C-2.365 2.108-14.531 9.551-17.421 4.484-24.124-18.392-14.487-47.589 11-52.35 18.093-35.376 13.704-12.214 0 0M86.196 117.883C69.507 99.56 68.477 69.708 89.486 54.524 105.284 71.538 110.56 106.534 86.196 117.883M220.213 180.827C192.387 173.221 188.033 98.544 219.734 134.502 230.216 146.392 240.679 186.42 220.213 180.827M65.654 140.047C91.637 165.38 113.751 145.115 126.365 118.045 131.435 107.166 128.959 89.54 141.366 92.612 145.304 93.587 173.64 110.827 174.213 113.212 152.471 150.887 187.381 213.59 229.844 214.889 256.274 215.697 263.693 174.168 260.572 153.719 252.362 99.907 206.004 95.846 166.906 73.839 130.329 53.25 91.103 18.141 66.417-15.935 56.971-28.974 31.534-82.705 21.972-85.239 8.61-88.78-22.676-70.984-31.845-60.193-51.414-37.163-56.852 6.844-37.224 30.955-15.429 57.727 26.495 18.045 39.415-2.221L67.119 32.801C38.018 60.609 36.462 111.585 65.654 140.047"/>
<path transform="matrix(1,0,0,-1,606.871,461.13893)" d="M0 0C4.198-3.154 11.15-4.019 16.616-6.374 23.123-8.94 29.136-12.808 34.787-16.757 43.254-22.639 51.619-29.067 61.771-31.471 86.148-38.429 121.441-22.801 139.704-43.585 145.248-61.16 127.027-60.284 117.699-67.257 108.225-77.939 117.541-102.351 98.757-103.884 78.422-105.219 88.31-76.779 77.506-67.221 67.33-60.757 53.382-62.996 42.718-56.977 28.142-51.388 15.756-35.356-.494-35.614-4.354-36.303-4.972-40.611-4.905-43.939-5.096-73.601-5.449-146.237-4.992-175.462-5.091-178.806-4.058-182.295-.63-183.585 6.253-186.675 19.854-183.341 28.111-188.033 36.419-192.896 38.229-206.215 27.958-209.6 20.738-212.504 12.045-211.909 4.372-212.206-14.013-212.694-35.533-212.946-54.192-212.455-60.988-212.057-68.503-212.801-74.311-208.863-82.573-203.366-80.512-190.894-71.053-187.974-61.641-183.184-41.913-190.632-39.207-178.306-40.864-147.516-32.468-70.913-40.2-37.511-56.417-29.179-73.965-54.672-89.286-58.869-101.552-65.005-122.99-59.281-126.423-76.363-128.037-83.054-127.58-90.786-130.528-97.022-134.755-107.269-149.825-106.882-154.55-97.196-159.112-89.381-156.386-79.354-159.461-71.047-162.069-63.804-170.49-62.569-176.517-59.322-184.93-55.67-187.588-43.819-179.607-38.37-163.488-28.834-141.725-34.422-123.34-33.528-95.237-33.985-94.883-26.101-70.239-12.037-61.637-5.688-50.312-4.399-41.989 1.171-34.274 9.701-39.573 23.971-37.302 34.637-37.395 46.874-25.485 58.358-14.004 49.842-1.89 36.849-13.268 12.397-.138 .106Z"/>
</g>
</g>
</svg>
